<svg xmlns="http://www.w3.org/2000/svg" width="1280" height="820" viewBox="0 0 1280 820" role="img" aria-labelledby="title desc">
  <title id="title">uib-hero-editor component breakdown</title>
  <desc id="desc">Architecture diagram showing how uib-hero-editor is composed from reusable UI Base package components, standard HTML form controls, and parent-owned data persistence.</desc>
  <defs>
    <style>
      .bg{fill:#f6f9fc}
      .panel{fill:#fff;stroke:#cfd8e6;stroke-width:2}
      .package{fill:#eef5ff;stroke:#174a8b;stroke-width:2}
      .basic{fill:#f8fbff;stroke:#7a8ba3;stroke-width:2}
      .event{fill:#f0fdf4;stroke:#166534;stroke-width:2}
      .parent{fill:#fff7ed;stroke:#9a3412;stroke-width:2}
      .text{font-family:Inter,Segoe UI,Arial,sans-serif;fill:#13294b}
      .muted{font-family:Inter,Segoe UI,Arial,sans-serif;fill:#53657f}
      .title{font-size:30px;font-weight:800}
      .h2{font-size:20px;font-weight:800}
      .body{font-size:15px}
      .small{font-size:13px}
      .label{font-size:14px;font-weight:800}
      .line{stroke:#7a8ba3;stroke-width:2;fill:none}
      .arrow{stroke:#174a8b;stroke-width:2.5;fill:none;marker-end:url(#arrow)}
      .eventArrow{stroke:#166534;stroke-width:2.5;fill:none;marker-end:url(#arrowGreen)}
      .parentArrow{stroke:#9a3412;stroke-width:2.5;fill:none;marker-end:url(#arrowOrange)}
    </style>
    <marker id="arrow" markerWidth="12" markerHeight="12" refX="10" refY="6" orient="auto">
      <path d="M2,2 L10,6 L2,10 Z" fill="#174a8b"/>
    </marker>
    <marker id="arrowGreen" markerWidth="12" markerHeight="12" refX="10" refY="6" orient="auto">
      <path d="M2,2 L10,6 L2,10 Z" fill="#166534"/>
    </marker>
    <marker id="arrowOrange" markerWidth="12" markerHeight="12" refX="10" refY="6" orient="auto">
      <path d="M2,2 L10,6 L2,10 Z" fill="#9a3412"/>
    </marker>
  </defs>

  <rect class="bg" width="1280" height="820"/>
  <text class="text title" x="48" y="58">uib-hero-editor component breakdown</text>
  <text class="muted body" x="48" y="86">Reusable editor in @ui.base/hero. Persistence is owned by the parent demo or app-manager wrapper.</text>

  <rect class="panel" x="44" y="126" width="760" height="620" rx="14"/>
  <text class="text h2" x="76" y="166">@ui.base/hero package</text>

  <rect class="package" x="84" y="204" width="300" height="104" rx="12"/>
  <text class="text h2" x="112" y="240">uib-hero-editor</text>
  <text class="muted body" x="112" y="268">Owns edit state</text>
  <text class="muted body" x="112" y="290">Emits change and save events</text>

  <rect class="basic" x="96" y="360" width="260" height="78" rx="10"/>
  <text class="text label" x="122" y="392">Standard HTML controls</text>
  <text class="muted small" x="122" y="416">inputs, textareas, selects, buttons</text>

  <rect class="package" x="96" y="462" width="260" height="78" rx="10"/>
  <text class="text label" x="122" y="494">uib-visual-source-control</text>
  <text class="muted small" x="122" y="518">@ui.base/assets</text>

  <rect class="package" x="96" y="564" width="260" height="78" rx="10"/>
  <text class="text label" x="122" y="596">uib-detail-list-editor</text>
  <text class="muted small" x="122" y="620">@ui.base/ui</text>

  <rect class="basic" x="424" y="360" width="286" height="78" rx="10"/>
  <text class="text label" x="450" y="392">Inline action editor</text>
  <text class="muted small" x="450" y="416">link/action, value, variant, flags</text>

  <rect class="basic" x="424" y="462" width="286" height="78" rx="10"/>
  <text class="text label" x="450" y="494">Navigation row editor</text>
  <text class="muted small" x="450" y="518">label and href rows</text>

  <rect class="package" x="424" y="594" width="286" height="104" rx="12"/>
  <text class="text h2" x="454" y="632">uib-hero-preview</text>
  <text class="muted body" x="454" y="660">Maps hero record to display attrs</text>
  <text class="muted body" x="454" y="682">Passes rich slots through</text>

  <rect class="package" x="874" y="280" width="300" height="110" rx="12"/>
  <text class="text h2" x="906" y="320">uib-hero</text>
  <text class="muted body" x="906" y="348">Runtime display component</text>
  <text class="muted body" x="906" y="370">Renders hero, actions, nav, details</text>

  <rect class="parent" x="872" y="492" width="304" height="142" rx="14"/>
  <text class="text h2" x="904" y="532">Parent app or demo</text>
  <text class="muted body" x="904" y="562">Provides hero-data property/attribute</text>
  <text class="muted body" x="904" y="586">Listens for uib-hero-editor-save</text>
  <text class="muted body" x="904" y="610">Loads and saves however it wants</text>

  <path class="arrow" d="M236 308 L236 350"/>
  <path class="arrow" d="M236 438 L236 452"/>
  <path class="arrow" d="M236 540 L236 554"/>
  <path class="arrow" d="M384 256 C480 256 520 318 546 350"/>
  <path class="arrow" d="M567 540 L567 584"/>
  <path class="arrow" d="M710 646 C792 646 814 338 864 338"/>
  <path class="eventArrow" d="M710 232 C858 202 938 210 1014 270"/>
  <path class="parentArrow" d="M1024 492 C1002 432 930 396 798 356"/>
  <path class="eventArrow" d="M384 242 C606 192 778 518 862 560"/>

  <text class="muted small" x="736" y="626">preview record</text>
  <text class="muted small" x="820" y="320">render attrs</text>
  <text class="muted small" x="730" y="206">change events</text>
  <text class="muted small" x="732" y="536">save event</text>
  <text class="muted small" x="916" y="448">hero-data in</text>

  <rect class="parent" x="44" y="766" width="1132" height="34" rx="8"/>
  <text class="text small" x="68" y="788">App-manager integration: uib-application-hero-editor remains as a wrapper that loads/saves records, then delegates editing to uib-hero-editor.</text>
</svg>
